<svg version="1.1" viewBox="0.0 0.0 96.0 96.0" fill="none" stroke="none" stroke-linecap="square" stroke-miterlimit="10" xmlns:xlink="http://www.w3.org/1999/xlink" xmlns="http://www.w3.org/2000/svg"><clipPath id="p.0"><path d="m0 0l96.0 0l0 96.0l-96.0 0l0 -96.0z" clip-rule="nonzero"/></clipPath><g clip-path="url(#p.0)"><path fill="#000000" fill-opacity="0.0" d="m0 0l96.0 0l0 96.0l-96.0 0z" fill-rule="evenodd"/><defs><linearGradient id="p.1" gradientUnits="userSpaceOnUse" gradientTransform="matrix(11.651802520985363 0.0 0.0 11.651802520985363 0.0 0.0)" spreadMethod="pad" x1="-4.119534287810841" y1="4.118393034843711" x2="4.119519329213738" y2="12.357476569062495"><stop offset="0.0" stop-color="#211f2e"/><stop offset="1.0" stop-color="#46453c"/></linearGradient></defs><path fill="url(#p.1)" d="m0 15.987197l0 0c0 -8.836733 7.163587 -16.00032 16.00032 -16.00032l63.99936 0l0 0c4.2435455 0 8.313293 1.6857432 11.313934 4.686385c3.0006409 3.0006423 4.686386 7.070386 4.686386 11.313935l0 63.99936c0 8.836731 -7.1635895 16.00032 -16.00032 16.00032l-63.99936 0c-8.836733 0 -16.00032 -7.1635895 -16.00032 -16.00032z" fill-rule="evenodd"/><path fill="#e7c6ff" d="m31.4349 14.826325c0.98132133 0 2.2368298 0.138731 3.7665348 0.41619396c1.529705 0.27746296 3.0161133 0.7553158 4.4592323 1.4335594c1.4431152 0.6782417 2.6697655 1.54146 3.679947 2.589653c1.0101814 1.0481949 1.515274 2.312191 1.515274 3.791994c-0.9813194 2.7746296 -2.4677315 5.2872105 -4.4592323 7.5377426c-1.9915009 2.2505322 -4.2283325 4.3006763 -6.710495 6.1504307c-2.4821587 1.8497505 -5.079769 3.499115 -7.7928295 4.9480896c-2.7130585 1.4489708 -5.310669 2.7592125 -7.7928295 3.930725c-0.6349716 -1.7264366 -1.0246124 -3.6686783 -1.1689243 -5.826725c-0.1443119 -2.158043 -0.1587429 -4.3623314 -0.043294907 -6.6128654c0.115449905 -2.2505322 0.3030548 -4.4394073 0.5628166 -6.5666237c0.2597599 -2.1272144 0.4762287 -4.0848713 0.6494026 -5.872965c0.4040718 -0.7399006 1.2266483 -1.4798031 2.4677296 -2.2197037c1.2410793 -0.7399006 2.5687485 -1.3719006 3.9830017 -1.8959961c1.4142551 -0.52409744 2.7707844 -0.9557066 4.0695896 -1.2948275c1.2988052 -0.33912182 2.2368317 -0.50868225 2.8140774 -0.50868225zm3.441759 -4.803917c-1.1994362 0 -2.4188423 0.09067345 -3.658226 0.27202225c-2.1069508 0.3082924 -4.1994705 0.86321735 -6.2775574 1.6647778c-2.0780888 0.80155945 -3.9830036 1.7572651 -5.7147427 2.867117c-0.40407372 -0.24663353 -0.7071285 -0.6011696 -0.9091644 -1.0636082c-0.2020359 -0.46243858 -0.3896408 -0.87863255 -0.5628147 -1.2485828c-0.1731739 -0.36995125 -0.38964272 -0.6936579 -0.6494026 -0.97112083c-0.2597618 -0.27746296 -0.6494026 -0.41619396 -1.1689253 -0.41619396c-0.5195217 0 -1.1256313 0.50868225 -1.818327 1.5260458c-0.6926956 1.0173645 -1.4142542 2.1888742 -2.1646748 3.5145311c-0.7504215 1.325655 -1.4575481 2.666727 -2.1213818 4.0232124c-0.6638336 1.3564854 -1.2266493 2.312191 -1.688447 2.867117c-0.057724953 0.12331772 -0.08658695 0.21580505 -0.08658695 0.2774639l0 0.277462c0 0.5549259 0.1731739 1.0173645 0.5195217 1.3873138c0.34634876 0.36995125 0.7215586 0.5549259 1.1256313 0.5549259c0.57724667 0 1.0679064 -0.12331581 1.4719791 -0.36994934c0.40407276 -0.24663353 0.8658705 -0.52409744 1.3853922 -0.83238983l0 0c-0.2886238 9.680376 -0.2886238 19.715284 0 30.10473c0.2886238 10.389442 1.0390444 20.455185 2.2512617 30.19722c0.40407276 0.8632126 0.9235954 1.2948227 1.5585661 1.2948227c0.3463478 0 0.7215595 -0.09248352 1.1256313 -0.2774582c0.40407372 -0.1849823 0.6061096 -0.52410126 0.6061096 -1.0173645l0 -33.203068c-0.115449905 -0.12331772 0.5628147 -0.5549278 2.0347939 -1.2948265c1.4719791 -0.7399025 3.348032 -1.7264366 5.6281567 -2.9596062c2.2801228 -1.2331696 4.776716 -2.6975555 7.4897747 -4.393162c2.7130585 -1.69561 5.238514 -3.637848 7.5763626 -5.826725c2.3378487 -2.1888733 4.3004875 -4.624382 5.8879166 -7.3065224c1.587429 -2.6821423 2.4100075 -5.533844 2.4677315 -8.555107c-0.3463478 -2.3430214 -1.0967712 -4.285261 -2.2512627 -5.826723c-1.1544952 -1.54146 -2.5398865 -2.728385 -4.1561775 -3.5607738c-1.616291 -0.8323889 -3.420185 -1.3564854 -5.411686 -1.5722904c-0.8200302 -0.08886051 -1.6498489 -0.13329029 -2.4894524 -0.13329029z" fill-rule="evenodd"/><path fill="#e7c6ff" d="m86.850586 19.543196c-2.6553345 0.6165848 -4.921028 1.3410702 -6.797081 2.17346c-1.8760529 0.8323879 -3.766533 1.7572651 -5.6714478 2.7746296c-1.9049149 1.0173626 -4.0695877 2.1272144 -6.494026 3.3295536c-2.4244385 1.2023411 -5.5415688 2.389265 -9.351398 3.5607758l0 -8.786327c-0.4040718 0.06165886 -0.8947296 0.092487335 -1.4719772 0.092487335c-0.5772476 0 -1.1256332 0.06165886 -1.645153 0.18497658c-0.5195236 0.12331581 -0.9524574 0.32370567 -1.2988052 0.6011696c-0.3463478 0.277462 -0.5195236 0.7244854 -0.5195236 1.3410702l0 4.901846c0 2.2197037 0.014431 4.8556004 0.043293 7.907694c0.028862 3.0520935 0.08658981 6.366234 0.17317581 9.942421c0.086586 3.576191 0.21646881 7.152378 0.3896408 10.728569c0.17317581 3.5761871 0.3752098 7.029064 0.6061096 10.358616c0.23089981 3.3295517 0.5050888 6.2737427 0.8225746 8.832573c0.3174858 2.5588226 0.72156143 4.608963 1.2122192 6.150429c0.49066162 1.5414581 1.0534744 2.3121872 1.688446 2.3121872c0.5772476 0 0.9957504 -0.21580505 1.2555122 -0.64741516c0.2597618 -0.43160248 0.3896408 -1.0481873 0.3896408 -1.8497467l0 -14.150612c0 -0.3082962 0.6205406 -0.909462 1.8616219 -1.8035126c1.2410812 -0.89404297 2.8140755 -1.9576569 4.7189903 -3.1908188c1.9049149 -1.2331734 3.9685745 -2.543415 6.1909714 -3.930729c2.2224045 -1.3873138 4.3149185 -2.7129707 6.2775574 -3.9769669c1.9626389 -1.2639999 3.651085 -2.389267 5.065338 -3.375801c1.4142609 -0.9865341 2.2656937 -1.6647758 2.5543213 -2.034729c-0.115448 -0.24663162 -0.173172 -0.5240936 -0.173172 -0.832386l0 -1.1098518c0 -0.3082924 -0.028862 -0.570343 -0.08659363 -0.7861481c-0.057724 -0.21580124 -0.14431 -0.32370377 -0.259758 -0.32370377c-0.057724 0 -0.14431 0.030826569 -0.259758 0.092487335l-0.95246124 0.46243668c-0.5195236 0.24663544 -1.3132324 0.6782417 -2.3811417 1.2948265c-1.0679092 0.6165848 -2.5543137 1.5106316 -4.4592285 2.6821442c-1.9049149 1.1715088 -4.3293533 2.65131 -7.273308 4.4394073c-2.943962 1.7880936 -6.55175 3.9461365 -10.8233795 6.4741325l-1.1256294 -26.081516l27.79443 -14.243097c0.7504196 -0.4316082 1.1256332 -0.9865341 1.1256332 -1.6647778c0 -0.36995125 -0.08659363 -0.770731 -0.25976562 -1.2023392c-0.173172 -0.4316082 -0.46179962 -0.64741325 -0.8658676 -0.64741325z" fill-rule="evenodd"/></g></svg>